<svg xmlns="http://www.w3.org/2000/svg" xmlns:xlink="http://www.w3.org/1999/xlink" viewBox="0 0 58.94 45.18"><defs><style>.cls-1{fill:none;}.cls-2{clip-path:url(#clip-path);}.cls-3{fill:url(#linear-gradient);}.cls-4{fill:#fff;}.cls-5{fill:url(#linear-gradient-2);}.cls-6{fill:#510e9f;}</style><clipPath id="clip-path" transform="translate(-16.14 -13.7)"><circle class="cls-1" cx="36.28" cy="36.28" r="36.28"/></clipPath><linearGradient id="linear-gradient" x1="65.37" y1="481.2" x2="17.28" y2="471.72" gradientTransform="matrix(0.99, -0.15, -0.15, -0.99, 83.91, 506.68)" gradientUnits="userSpaceOnUse"><stop offset="0.21" stop-color="#fff" stop-opacity="0"/><stop offset="1" stop-color="#fff"/></linearGradient><linearGradient id="linear-gradient-2" x1="-1732.97" y1="174.31" x2="-1781" y2="164.84" gradientTransform="matrix(-0.99, 0.15, 0.15, 0.99, -1717.36, 128.11)" gradientUnits="userSpaceOnUse"><stop offset="0" stop-color="#510e9f"/><stop offset="0.57" stop-color="#18ffff" stop-opacity="0"/></linearGradient></defs><title>RM_Logo_white</title><g id="Layer_2" data-name="Layer 2"><g id="Layer_1-2" data-name="Layer 1"><g class="cls-2"><path class="cls-3" d="M62.55,14l-33,12.06c-5.61,1.9-4.24,9.53,2,9.36l34.3,0a10.89,10.89,0,0,0,9.06-12.4h0A10.89,10.89,0,0,0,62.55,14Z" transform="translate(-16.14 -13.7)"/></g><path class="cls-4" d="M16.25,30a18.32,18.32,0,0,1,36.44.36l3.58,9.23a2.43,2.43,0,0,1-1.38,3.13L53,43.41a1.8,1.8,0,0,0-1.15,1.68v5a3.44,3.44,0,0,1-3.43,3.43H43.55a1.25,1.25,0,0,0-1.25,1.25V57A1.86,1.86,0,0,1,40,58.82L24.62,54.16a2,2,0,0,1-1.54-2V48.87A5.52,5.52,0,0,0,21.51,45,18.27,18.27,0,0,1,16.25,30Z" transform="translate(-16.14 -13.7)"/><path class="cls-5" d="M33.69,40.77l33-12.06c5.9-.92,3.89-10.28-2-9.36l-34.3,0a10.89,10.89,0,0,0-9.06,12.4h0A10.89,10.89,0,0,0,33.69,40.77Z" transform="translate(-16.14 -13.7)"/><circle class="cls-6" cx="32.93" cy="16.75" r="1.95"/></g></g></svg>